<?xml version="1.0" encoding="utf-8"?>
<!-- Generator: Adobe Illustrator 15.0.0, SVG Export Plug-In . SVG Version: 6.00 Build 0)  -->
<!DOCTYPE svg PUBLIC "-//W3C//DTD SVG 1.1//EN" "http://www.w3.org/Graphics/SVG/1.1/DTD/svg11.dtd">
<svg version="1.1" id="Layer_1" xmlns="http://www.w3.org/2000/svg" xmlns:xlink="http://www.w3.org/1999/xlink" x="0px" y="0px"
	 width="2040.5px" height="1178.5px" viewBox="0 0 2040.5 1178.5" enable-background="new 0 0 2040.5 1178.5" xml:space="preserve">
<g>
	<polygon fill="none" stroke="#cbc9bc" stroke-width="1" stroke-linejoin="round" points="
		800.062,103.598 801.262,105.011 804.14,101.741 802.72,92.998 802.366,80.843 798.055,66.383 797.849,65.693 796.024,55.108
		793.368,52.802 791.368,47.65 793.245,40.371 797.636,35.293 796.314,34.202 795.703,30.633 801.376,15.711 802.938,5.079
		802.636,2.965 797.71,-31.485 798.585,-38.516 796.608,-53.986 809.502,-52.702 813.53,-37.483 827.558,-2.251 834.946,0.235
		840.104,-1.28 840.787,2.911 843.167,2.621 844.094,0.242 839.361,-6.847 836.704,-14.679 832.935,-23.654 830.182,-32.677
		825.234,-48.859 825.558,-53.298 2062.791,-55.17 2047.04,649.831 2038.86,652.575 2035.778,652.502 2035.37,652.527
		2015.769,665.429 2014.938,668.098 2013.66,670.574 1995.929,685.509 1992.307,690.047 1987.084,694.423 1977.663,706.485
		1971.073,713.175 1969.145,711.651 1967.499,713.604 1966.788,716.381 1955.296,725.952 1945.659,730.56 1945.056,732.091
		1942.854,736.646 1932.94,741.203 1931.275,740.159 1935.634,736.646 1925.729,736.646 1922.989,736.646 1924.852,743.117
		1924.512,743.727 1926.114,743.552 1923.187,746.96 1921.622,750.424 1921.812,751.789 1929.466,743.633 1930.387,744.714
		1928.73,748.807 1925.124,753.496 1919.898,758.022 1918.043,758.118 1917.036,760.177 1917.789,762.891 1913.06,767.271
		1907.729,774.317 1905.339,776.064 1897.905,787.053 1893.39,793.734 1889.252,794.958 1875.643,810.979 1868.696,822.006
		1865.758,824.8 1863.166,824.691 1862.213,822.991 1864.388,817.608 1867.184,816.83 1868.952,815.225 1870.128,813.508
		1872.158,810.542 1884.763,796.578 1890.711,792.124 1901.151,781.296 1903.255,776.428 1900.64,776.062 1895.033,780.119
		1894.428,782.782 1891.576,787.778 1891.255,788.34 1885.784,792.515 1884.301,794.85 1880.296,798.572 1875.021,801.617
		1866.245,808.489 1859.629,811.735 1854.588,812.855 1853.297,813.342 1849.895,812.03 1843.793,811.125 1843.737,812.381
		1847.778,814.027 1850.5,814.128 1849.347,815.698 1840.056,815.094 1835.209,818.883 1833.847,818.833 1833.241,821.249
		1830.441,821.91 1828.691,834.79 1827.434,838.749 1825.9,840.088 1824.742,836.899 1824.905,826.617 1822.494,823.248
		1820.386,829.641 1821.073,837.488 1820.707,841.894 1818.505,848.791 1815.858,839.049 1815.916,830.428 1813.898,833.156
		1812.336,833.367 1810.332,830.728 1808.067,825.597 1807.443,821.129 1804.95,818.519 1802.382,806.01 1798.147,801.131
		1796.311,803.618 1796.231,808.638 1794.605,810.364 1795.9,819.31 1797.083,834.022 1796.054,839.723 1796.602,844.954
		1794.39,849.343 1790.792,853.198 1785.975,854.37 1780.488,853.823 1774.164,855.333 1766.962,855.812 1761.503,855.617
		1757.261,856.12 1741.766,855.105 1728.649,856.075 1727.629,855.94 1716.973,854.571 1714.233,854.653 1706.396,854.888
		1699.453,856.101 1696.737,857.913 1696.804,854.683 1697.262,850.73 1696.698,849.926 1696.719,850.768 1695.209,851.373
		1691.309,857.772 1688.683,859.073 1678.607,861.38 1677.216,860.848 1672.41,862.685 1669.58,862.75 1660.899,865.603
		1660.227,866.888 1654.7,868.666 1653.545,865.984 1652.236,866.704 1653.044,869.655 1640.703,872.899 1630.999,878.601
		1628.454,879.155 1628.002,877.938 1630.441,870.364 1627.913,872.785 1625.067,875.186 1624.945,877.216 1624.68,881.56
		1619.634,883.302 1608.731,889.347 1595.521,899.042 1594.184,897.561 1590.32,900.354 1590.991,902.939 1590.316,905.496
		1587.847,910.568 1583.412,912.154 1583.792,913.281 1582.661,914.125 1576.316,924.599 1572.515,933.289 1562.243,943.977
		1558.766,944.992 1553.484,944.891 1546.268,943.436 1540.656,940.477 1540.768,941.978 1546.082,945.96 1557.795,950.21
		1564.817,945.659 1570.742,937.685 1572.065,938.97 1566.531,945.659 1562.659,953.107 1560.135,960.254 1554.521,976.183
		1546.178,987.614 1538.803,995.458 1532.702,1000.579 1520.431,1009.7 1517.895,1010.978 1501.022,1019.526 1496.206,1023.678
		1493.951,1022.854 1484.921,1030.865 1476.593,1027.274 1473.871,1023.604 1472.225,1019.722 1471.831,1016.114 1472.519,1012.418
		1473.968,1010.29 1474.604,1009.36 1477.67,999.95 1475.492,989.201 1472.595,980.146 1460.742,963.171 1453.315,959.016
		1448.191,953.624 1443.658,953.163 1446.313,955.703 1449.014,962.005 1455.315,964.243 1466.493,980.398 1468.986,985.717
		1470.319,991.881 1474.223,998.089 1470.141,1013.24 1469.508,1012.915 1469.288,1008.536 1469.541,1006.987 1470.283,1002.434
		1467.467,988.226 1464.661,983.559 1462.946,981.944 1462.383,983.371 1461.925,984.539 1464.164,986.617 1467.11,993.029
		1466.353,999.1 1462.837,996.265 1460.999,993.029 1460.234,984.937 1458.289,980.323 1457.005,973.272 1455.547,971.885
		1454.353,975.376 1455.085,980.083 1457.05,984.818 1456.366,987.008 1451.937,985.111 1448.616,984.891 1443.431,987.454
		1437.352,980.186 1431.863,980.395 1427.094,982.264 1428.852,983.418 1434.35,982.445 1436.016,983.435 1441.924,990.731
		1453.862,990.981 1457.143,993.851 1456.692,999.038 1459.179,1001.087 1460.738,1003.846 1461.093,1009.968 1457.977,1007.59
		1452.806,1008.649 1449.408,1004.282 1445.376,1001.232 1442.416,1000.852 1435.716,1002.67 1432.99,1005.286 1435.575,1005.996
		1443.985,1005.279 1445.314,1006.634 1448.063,1007.413 1450.659,1009.327 1455.395,1015.21 1457.832,1016.639 1459.906,1021.365
		1464.3,1027.656 1466.124,1025.998 1462.904,1017.604 1467.319,1019.374 1468.265,1022.11 1470.777,1029.386 1473.485,1031.294
		1480.93,1031.317 1480.671,1032.717 1473.739,1034.543 1461.934,1034.882 1442.485,1041.903 1435.248,1043.935 1421.379,1047.84
		1414.22,1051.216 1405.403,1052.226 1399.929,1055.34 1390.018,1057.837 1372.04,1064.324 1368.993,1067.233 1364.221,1068.406
		1354.971,1068.486 1345.134,1067.363 1326.533,1063.531 1315.787,1058.994 1314.38,1058.785 1308.989,1057.991 1305.539,1056.174
		1288.471,1057.523 1286.035,1063.035 1271.363,1061.158 1271.481,1059.766 1277.633,1059.051 1279.107,1057.783 1274.124,1053.853
		1270.73,1052.199 1265.716,1049.882 1262.036,1049.603 1261.894,1052.134 1264.507,1055.403 1265.612,1058.187 1267.503,1058.89
		1267.879,1060.361 1264.86,1062.031 1261.539,1061.719 1253.596,1057.457 1246.284,1056.154 1243.079,1054.453 1241.95,1051.417
		1239.539,1051.783 1229.609,1045.966 1226.289,1045.667 1217.026,1037.706 1214.772,1035.984 1203.187,1031.424 1198.618,1033.068
		1192.11,1028.82 1182.824,1024.976 1178.12,1021.803 1167.171,1016.813 1157.541,1011.328 1153.942,1010.817 1151.138,1008.338
		1150.127,1008.533 1146.933,1009.151 1144.644,1005.743 1140.665,1006.403 1137.89,1004.3 1126.042,999.627 1122.899,997.563
		1114.872,996.9 1096.436,991.429 1088.052,990.89 1076.42,991.057 1069.036,989.597 1064.442,990.216 1058.576,989.225
		1057.972,989.322 1047.973,991.008 1044.108,992.692 1042.737,991.333 1041.549,988.192 1042.697,981.524 1041.093,981.449
		1039.081,988.565 1040.041,992.515 1026.911,993.588 1017.939,992.194 1014.816,990.348 1008.256,986.483 973.267,956.833
		972.185,953.685 975.652,953.923 977.19,953.364 977.638,951.806 974.964,948.705 969.378,947.085 971.404,952.136 970.12,952.791
		966.949,948.494 963.609,946.109 959.394,941.307 957.028,937.677 957.914,935.686 959.809,936.099 960.858,934.467
		958.669,932.447 957.116,931.746 955.12,937.14 953.258,936.977 943.943,927.353 940.477,922.722 929.995,912.737 924.722,908.566
		921.104,907.1 916.912,901.675 906.208,892.38 890.199,878.519 882.994,872.829 868.951,863.685 871.997,862.181 875.339,863.292
		884.055,861.618 886.719,857.556 888.008,855.101 889.078,849.304 891.856,843.308 891.398,841.474 892.827,836.647
		897.866,825.128 894.719,826.094 889.837,831.081 889.375,834.659 886.494,834.375 883.521,844.049 878.51,848.927
		863.146,856.322 864.732,859.281 863.078,859.984 845.672,847.738 843.875,845.059 841.873,844.925 837.311,841.954
		830.618,835.718 827.599,835.337 824.972,836.165 822.498,835.207 820.465,832.55 819.856,831.753 804.08,827.411 790.452,819.411
		782.438,810.71 774.768,805.879 771.511,804.652 770.074,802.062 771.671,794.805 768.629,782.205 765.597,779.816
		765.857,777.894 767.206,776.712 767.284,775.321 769.171,773.441 776.851,771.086 781.125,771.43 787.201,776.338
		789.819,771.218 786.206,769.151 783.677,768.838 782.361,767.41 779.472,767.543 775.425,768.616 770.583,766.706
		765.922,767.299 759.822,771.349 756.41,775.14 754.552,778.179 752.308,780.002 751.802,779.724 751.05,779.656 750.311,779.65
		748.514,779.593 747.661,780.256 747.41,780.524 747.104,782.013 746.404,781.879 746.055,781.814 744.999,782.024 744.995,784.33
		747.418,788.811 752.249,794.619 757.604,797.721 766.25,801.285 769.37,804.421 769.247,805.446 768.559,805.225 749.832,799.218
		747.768,799.605 731.881,806.817 730.01,810.717 733.723,818.562 732.946,820.294 729.479,821.377 723.567,821.766
		719.365,821.606 710.089,821.25 688.052,827.68 681.012,827.978 677.545,830.964 662.988,835.559 656.235,832.295 655.564,831.491
		649.167,823.785 640.961,811.392 632.105,811.202 626.645,809.418 624.902,811.296 622.781,816.885 620.533,818.708
		604.265,823.869 600.928,826.446 595.507,826.817 590.827,826.202 586.064,827.742 581.632,826.216 579.34,827.668
		568.618,829.641 567.818,829.784 559.617,829.798 552.679,827.243 548.482,827.453 544.417,828.661 541.903,831.165
		540.358,830.859 536.667,830.141 522.272,826.763 518.622,823.746 511.86,824.339 508.831,822.247 507.826,820.369
		501.068,816.541 498.768,817.002 488.904,825.634 486.324,825.881 485.838,829.49 486.324,832.07 484.984,834.039 480.857,832.108
		480.194,830.062 481.516,827.974 480.159,827.155 472.587,830.792 469.978,833.451 463.081,831.305 454.967,840.712
		448.214,840.445 439.752,838.669 436.301,836.275 433.137,835.645 431.946,835.406 427.199,836.999 418.457,844.508
		415.339,845.746 412.348,846.938 411.196,842.438 409.072,842.375 405.109,836.524 404.383,834.101 405.018,832.491 407.5,830.725
		409.656,826.733 411.98,824.742 412.327,820.265 413.823,815.993 411.847,814.393 410.038,811.392 408.559,808.943
		405.967,806.555 405.485,807.51 404.324,805.535 403.618,800.707 405.557,794.347 408.626,794.012 413.238,783.711
		413.636,778.722 415.439,775.669 415.406,772.008 427.751,769.285 428.654,767.761 427.401,764.278 425.167,764.942
		421.41,766.055 415.772,764.241 413.535,764.324 411.621,762.333 409.048,761.834 405.266,757.346 404.285,754.079
		401.208,754.415 399.474,751.136 401.582,749.301 400.51,747.942 400.834,746.76 412.741,736.646 414.214,727.379 412.993,718.746
		414.083,716.935 412.809,711.965 414.182,707.965 413.502,704.416 414.803,697.526 415.655,696.071 418.456,691.277
		428.392,694.883 430.185,698.382 429.696,698.456 433.009,702.102 436.362,703.587 440.305,710.54 443.367,712.581 444.62,715.024
		447.125,715.899 450.88,720.858 454.673,736.646 450.897,739.065 452.258,745.057 451.792,747.909 452.357,750.098 457.022,746
		458.911,745.222 471.361,750.097 480.988,750.972 486.799,749.626 487.099,748.646 487.567,747.114 487.305,741.72
		487.919,738.978 491.762,736.646 496.011,731.533 500.509,729.963 502.23,731.467 505.554,731.216 514.2,724.475 519.401,720.422
		525.552,719.874 532.759,726.472 538.905,728.445 539.872,726.538 544.241,725.758 550.989,719.086 552.345,714.731
		558.406,712.698 561.499,709.971 563.388,710.954 569.148,710.101 569.857,709.998 571.719,713.374 573.943,710.655
		577.936,709.815 583.355,700.715 586.644,703.631 589.661,702.058 595.352,701.733 592.13,697.548 591.397,697.652
		587.932,694.383 582.286,692.443 577.64,687.081 579.732,686.015 578.293,683.838 575.224,684.449 572.848,685.694 571.43,685.6
		571.97,683.915 573.737,683.169 573.77,680.219 575.256,678.633 575.066,676.253 583.485,671.371 584.17,672.656 581.293,676.094
		584.127,676.689 586.167,674.377 589.454,672.891 591.422,677.01 591.079,679.827 587.54,676.943 586.914,678.672 583.69,679.787
		580.607,680.854 581.244,682.646 585.214,684.208 592.116,682.698 593.412,684.776 598.637,683.764 598.178,680.556
		601.727,680.924 603.596,680.021 603.349,678.3 597.748,676.719 596.666,675.243 597.519,673.356 602.958,673.823 604.743,672.308
		604.635,671.571 595.724,668.707 592.991,666.21 591.957,664.515 588.406,658.69 583.229,654.919 578.459,653.099 574.487,654.181
		574.583,651.4 577.259,650.003 578.548,647.675 582.776,649.195 586.622,653.292 589.987,654.06 592.787,652.647 595.686,648.448
		596.932,649.276 595.713,652.976 597.853,655.684 601.685,653.624 602.434,655.924 602.583,656.385 607.468,655.554
		608.268,651.537 611.158,650.742 615.12,654.83 617.485,654.741 619.744,660.082 619.397,665.54 620.605,667.002 622.267,664.627
		627.535,665.633 630.598,665.196 630.495,664.453 623.616,660.909 624.175,657.812 626.714,657.197 626.891,654.902
		624.702,653.585 624.562,652.597 627.59,651.913 629.536,651.51 629.719,651.004 630.167,649.783 623.123,645.128 624.156,640.954
		628.453,639.46 633.447,643.782 633.866,646.736 632.499,649.45 633.354,650.21 638.841,649.182 642.015,646.839 640.581,644.651
		641.124,643.194 645.524,642.444 648.543,640.76 651.222,641.134 651.137,640.516 655.994,639.46 656.067,638.19 651.613,636.449
		648.252,635.141 640.429,639.14 637.852,638.623 636.324,640.226 635.012,638.903 638.609,634.238 636.175,630.305
		636.984,628.937 639.705,627.793 642.265,629.067 645.303,625.744 645.389,626.36 648.831,626.758 651.818,623.946
		648.191,621.313 637.039,624.9 634.833,623.777 628.933,620.766 623.211,622.841 621.772,621.542 624.721,619.353 625.704,613.929
		624.23,607.097 619.097,605.435 612.966,606.441 612.722,609.12 608.577,609.966 606.645,609.612 605.487,611.163 602.812,609.156
		604.181,607.323 607.905,606.164 605.177,603.783 606.249,602.498 606.611,602.465 608.852,602.245 610.551,598.356
		610.405,592.082 611.514,591.156 622.118,576.44 626.167,573.977 644.463,548.611 646.317,548.355 650.701,551.765
		655.589,550.704 657.288,551.739 657.932,552.135 661.567,551.124 664.989,552.158 668.058,551.604 669.159,549.437
		667.399,547.793 659.495,548.015 657.92,543.077 663.401,538.163 669.218,535.595 672.181,531.535 673.443,531.269
		675.733,530.794 677.812,532.139 679.707,531.246 679.701,527.599 683.814,528.166 685.356,531.098 684.123,534.914
		686.704,538.079 691.506,538.18 693.565,535.755 696.254,535.134 696.322,535.63 701.436,533.421 702.291,538.712 707.794,542.113
		716.486,541.181 719.022,536.689 721.508,531.826 725.699,528.365 731.572,527.072 733.666,526.099 734.887,525.497
		734.806,524.88 728.19,523.507 723.978,524.074 718.87,527.279 717.238,531.021 713.088,533.844 707.81,533.053 706.639,530.949
		714.925,527.936 717.021,525.77 716.141,522.997 711.092,519.28 702.272,519.055 700.963,519.024 693.688,521.15 689.54,520.336
		686.584,520.864 677.194,517.762 673.653,514.096 661.231,516.447 654.963,522.104 650.931,523.048 650.241,524.401
		641.916,531.463 638.972,536.554 638.667,536.661 631.785,539.205 627.298,548.397 623.646,551.055 620.474,555.281
		612.647,559.545 604.25,567.669 599.828,568.428 596.927,570.985 594.742,569.795 585,570.839 581.11,571.261 572.778,571.09
		568.765,566.893 565.182,564.772 561.726,564.397 557.93,566.844 556.508,564.031 560.146,562.235 562.436,557.243 564.99,556.617
		566.493,553.12 569.682,552.532 574.918,541.822 576.507,542.346 577.521,544.513 579.399,541.425 583.447,537.184
		583.648,533.379 587.306,534.236 592.848,532.429 595.042,534.502 596.896,534.24 598.248,530.516 599.961,530.143 602.79,533.135
		606.542,532.236 609.639,530.8 609.012,527.429 609.813,525.44 614.122,524.214 613.378,523.181 611.911,521.134 605.218,524.611
		600.738,518.958 598.033,519.473 598.106,519.965 594.553,518.963 591.218,522.09 588.865,521.544 585.65,522.008 583.8,524.038
		585.018,529.783 583.41,530.014 576.361,524.111 574.893,521.859 571.475,516.635 575.188,506.653 577.608,505.042
		576.293,497.804 577.115,488.742 579.713,487.488 579.405,496.6 583.327,493.134 583.508,482.281 586.191,478.999 585.228,475.863
		586.559,470.255 592.153,457.367 593.273,457.208 595.107,459.338 596.488,459.265 598.598,456.321 603.546,454.605
		609.152,447.765 613.202,449.457 622.03,446.282 626.951,443.611 631.088,445.042 634.517,444.181 635.762,444.889
		637.523,443.885 637.044,441.436 635.479,441.15 632.07,437.73 631.27,438.343 624.071,438.604 623.467,437.051 629.049,435.262
		632.268,432.042 635.495,423.53 638.918,419.872 637.082,417.77 631.03,418.995 625.923,418.833 623.377,421.458 617.398,424.943
		614.09,425.786 613.628,426.987 616.334,430.76 612.938,431.87 609.737,429.932 607.766,432.098 606.168,435.979 604.534,436.969
		600.673,444.439 598.31,445.658 597.862,443.456 600.947,438.771 602.437,436.509 600.157,433.938 596.871,436.676
		593.638,437.133 587.248,448.126 580.251,447.999 574.723,451.817 572.438,443.211 576.095,437.013 579.11,429.024
		579.024,425.002 577.53,425.221 573.845,429.528 574.094,432.582 574.163,433.388 569.557,438.336 567.906,443.487
		567.108,448.388 568.618,453.457 565.004,455.618 561.138,460.339 562.344,464.195 561.325,478.698 559.38,480.116
		556.312,479.933 555.124,479.603 555.516,476.271 552.987,477.143 550.204,479.759 543.321,486.242 541.476,485.764
		543.792,481.768 547.093,479.27 547.401,477.084 541.625,480.826 539.197,480.68 536.792,479.02 535.718,476.91 534.972,477.021
		532.634,474.094 532.659,466.657 529.958,466.425 530.375,462.453 529.472,462.339 523.657,470.884 522.702,471.274
		522.65,470.382 522.478,467.277 530.968,449.519 532.345,445.156 526.606,444.998 525.793,440.457 526.512,439.341 528.75,439.01
		529.11,437.194 527.41,435.178 522.697,437.633 522.505,435.524 526.088,431.47 522.712,429.318 522.268,427.243 524.658,424.045
		525.02,423.561 525.818,420.419 524.18,420.536 518.801,426.999 516.242,425.238 512.132,427.486 508.791,432.265 507.174,432.506
		504.388,430.908 502.051,432.265 496.917,422.823 498.448,418.684 495.322,417.39 496.947,413.871 496.752,405.961
		500.802,402.457 499.855,400.777 499.755,400.596 494.095,401.945 492.345,397.165 489.103,391.855 489.576,389.131
		474.472,378.926 474.187,373.797 476.709,374.43 478.952,379.007 482.173,381.673 491.805,387.04 491.711,386.422 493.69,385.996
		503.446,383.912 503.737,382.482 501.22,380.212 495.553,383.199 494.971,381.901 500.132,369.792 501.461,368.452
		508.815,368.121 506.041,365.005 499.84,362.901 501.875,358.69 504.465,353.894 483.327,371.799 481.839,371.263 482.159,369.969
		482.939,366.809 481.136,363.427 487.308,360.354 491.424,357.221 495.471,347.794 498.828,347.173 500.182,340.161
		500.466,333.688 502.531,332.123 507.475,330.127 508.021,327.025 506.865,323.665 501.063,321.753 496.59,318.507
		494.883,318.257 493.109,320.036 490.604,320.407 489.083,318.872 484.951,319.49 480.879,322.996 476.055,320.82 475.96,320.204
		480.441,318.519 479.106,314.06 482.568,312.402 482.93,308.951 478.611,310.188 474.704,311.315 475.988,308.854 481.615,304.604
		484.489,295.856 483.892,293.671 488.531,290.464 487.478,289.482 484.178,289.725 480.532,293.549 479.921,298.68
		477.458,301.822 472.48,301.184 472.338,299.516 472.728,297.991 474.438,297.344 475.815,296.597 475.884,295.042
		475.085,293.468 474.481,293.637 473.598,295.006 472.728,296.985 471.756,297.291 469.389,297.263 467.77,297.043
		466.857,298.877 466.819,301.904 464.987,303.314 458.78,300.593 456.708,298.007 453.514,299.753 441.291,310.944
		441.407,311.684 447.906,313.842 448.005,314.462 444.614,315.732 434.693,313.84 427.979,318.4 426.32,318.41 425.415,318.413
		417.217,312.864 418.918,311.466 427.872,314.508 429.959,313.931 431.272,310.076 427.458,307.886 425.399,309.458
		422.269,307.542 423.921,305.018 423.319,300.446 420.135,299.798 417.627,297.786 414.898,297.568 413.333,297.436
		403.312,300.624 399.815,299.654 396.405,300.812 396.643,302.288 408.424,310.056 413.347,314.339 412.984,315.28
		405.827,311.466 398.446,306.299 391.601,304.463 388.75,304.121 384.266,303.587 380.202,299.93 361.843,303.952 356.586,304.022
		351.474,300.281 341.304,299.718 340.96,300.437 335.133,302.502 328.589,300.268 321.351,300.792 310.966,298.672
		302.771,295.065 297.367,294.297 280.588,287.172 275.235,286.798 262.734,285.925 254.801,287.735 250.59,290.956
		250.771,297.246 249.527,300.485 244.862,303.279 238.299,305.37 235.326,305.148 229.671,300.999 223.05,299.197 218.404,299.492
		205.99,300.291 205.819,299.307 209.628,297.53 221.037,296.503 217.958,294.359 212.905,293.434 209.132,294.704 199.898,300.054
		191.638,310.177 190.969,312.942 191.456,313.815 194.34,318.95 192.74,323.015 188.568,328.526 189.317,328.402 190.631,332.225
		182.927,334.423 175.454,331.393 170.423,333.5 164.208,336.103 157.882,335.924 151.06,340.893 146.274,336.412 143.481,335.877
		141.25,333.479 137.372,332.631 136.021,330.842 132.669,330.791 129.6,328.037 123.611,326.924 123.438,322.401 119.641,312.808
		119.383,312.444 116.312,308.085 109.088,291.612 109.887,286.791 107.25,286.491 106.414,289.672 104.164,290.069 102.6,288.571
		99.83,279.051 94.708,269.438 92.294,254.93 94.646,253.622 98.991,256.156 103.107,253.915 106.101,254.021 109.416,249.521
		111.797,249.102 114.148,244.263 118.771,241.941 121.707,236.745 124.049,236.088 126.971,237.228 134.168,231.933
		137.225,231.662 140.548,232.862 144.102,229.591 146.621,232.066 147.72,233.147 145.129,233.847 145.062,235.629
		150.855,241.215 153.246,241.564 148.747,235.249 150.459,234.701 157.674,242.455 170.117,245.517 174.604,248.933
		181.211,250.466 183.115,250.269 187.32,249.94 190.216,250.966 195.193,246.963 200.375,237.495 203.201,237.398 206.856,239.062
		212.57,237.727 217.076,233.938 221.91,222.385 225.042,218.83 228.313,218.285 233.971,219.813 234.697,220.009 239.858,219.918
		246.061,217.633 248.285,217.771 248.875,218.938 247.016,221.646 254.527,222.434 250.41,211.354 254.106,211.756
		257.691,209.272 258.087,207.819 263.361,210.621 264.816,216.831 261.405,222.568 261.408,224.706 261.409,225.601
		263.236,227.199 266.003,226.749 267.659,225.089 265.622,222.258 267.548,219.921 270.193,219.492 272.354,220.78
		273.928,225.457 270.45,228.547 270.496,231.825 274.27,234.246 279.654,230.969 281.478,231.051 284.352,233.492 287.538,233.166
		288.542,233.066 290.889,230.157 293.332,217.127 290.521,212.023 290.588,206.329 287.379,197.367 288.37,192.533
		290.374,189.736 293.397,185.53 297.754,181.417 304.419,183.252 307.59,184.934 309.545,185.97 322.075,188.011 322.384,189.102
		321.792,189.736 315.032,196.969 312.096,204.135 313.617,209.319 309.521,209.6 308.085,214.88 304.154,219.935 307.731,225.043
		309.58,223.736 312.358,227.833 313.364,229.318 313.878,233.912 316.73,233.959 318.983,238.148 320.409,237.416 320.866,230.902
		318.123,213.022 318.649,211.55 321.021,212.562 321.783,210.165 327.131,211.211 331.53,214.296 335.915,214.234 338.735,217.955
		338.34,220.272 336.846,229.114 337.761,230.738 339.295,229.861 341.428,220.938 340.491,213.763 338.277,211.336
		329.905,210.008 328.611,208.447 331.317,196.017 335.623,190.789 336.888,189.736 340.833,186.461 342.562,185.021
		350.112,185.221 355.185,188.465 356.011,189.736 357.27,191.672 358.097,198.236 362.175,197.847 364.151,194.13 367.263,193.392
		371.702,189.736 373.878,187.94 377.058,187.575 379.667,189.736 379.821,189.736 384.499,184.778 393.097,180.17 393.431,179.992
		395.642,176.872 375.556,175.31 374.895,173.646 376.235,171.544 384.782,168.328 385.966,170.792 388.582,170.138
		391.107,161.795 400.155,157.627 402.92,152.281 404.47,151.154 407.562,148.917 410.064,149.924 410.589,152.369 407.737,155.583
		408.098,157.799 412.89,154.542 415.24,157.843 418.571,159.986 415.065,160.773 413.74,165.392 418.101,165.106 418.2,165.718
		415.135,169.215 414.069,173.036 410.016,174.413 406.601,177.335 404.133,178.094 403.446,179.458 405.524,180.277
		408.688,179.912 408.832,179.896 410.807,177.703 413.962,177.976 416.856,174.252 419.138,175.545 417.829,180.288
		416.492,181.629 420.341,183.816 420.346,187.854 420.919,189.736 421.445,191.472 426.475,195.375 430.368,194.656
		436.976,199.585 442.178,207.879 443.498,208.059 441.879,202.751 441.051,201.536 434.102,191.312 433.494,189.736 432.77,187.86
		435.346,182.924 434.627,179.25 438.203,175.681 439.451,172.97 444.286,175.646 445.922,175.436 444.713,169.399 452.681,163.28
		458.935,165.122 462.265,164.873 472.091,167.195 479.766,164.92 485.439,161.434 493.611,161.332 494.95,159.275 496.422,159.563
		502.165,157.329 503.834,159.732 508.342,161.22 510.694,165.537 516.269,164.726 528.649,168.598 529.095,173.201
		530.022,173.276 536.829,173.845 538.526,175.615 539.639,174.448 543.671,173.737 546.97,177.55 548.889,177.401 551.839,170.426
		556.378,173.05 557.682,173.118 559.681,170.939 571.893,172.098 580.684,176.396 589.336,175.425 593.83,178.698 597.6,177.997
		605.03,176.625 624.162,175.727 626.171,178.846 627.963,176.959 630.752,174.815 631.045,171.497 632.657,168.379 630.56,158.469
		625.193,156.36 622.731,155.396 621.461,151.163 623.909,146.669 631.985,140.774 634.292,137.055 633.298,129.386
		637.076,126.849 641.539,118.308 644.115,109.27 646.135,107.103 649.284,96.601 648.646,96.688 647.453,92.948 646.009,83.071
		642.717,78.355 642.042,79.078 636.614,77.556 632.288,77.999 625.842,78.666 624.001,80.294 623.29,86.055 620.615,89.066
		621.726,94.835 620.853,98.606 618.738,97.514 614.248,104.058 607.676,108.852 598.355,118.613 582.34,129.547 577.351,130.883
		563.61,131.823 560.82,133.103 557.946,132.122 554.205,132.281 552.018,130.703 550.561,129.653 549.793,126.105 542.49,125.261
		538.297,125.863 535.669,123.972 529.845,124.943 527.292,123.542 522.851,125.069 519.628,123.519 516.094,120.002
		509.066,116.608 506.977,116.535 503.077,113.196 493.674,108.773 491.637,104.907 487.931,97.89 484.258,98.552 483.473,103.461
		478.796,103.521 474.805,104.614 473.278,108.12 471.186,106.409 469.22,106.324 466.462,103.706 458.394,102.89 451.361,103.687
		447.445,100.358 448.762,98.02 447.593,94.79 450.518,94.351 452.863,95.925 456.355,98.272 460.104,98.095 462.774,96.058
		466.836,89.653 471.573,91.596 474.206,89.294 471.946,87.378 459.049,84.125 456.563,84.872 451.981,88.834 450.279,87.954
		452.72,83.677 458.251,78.31 461.218,66.645 465.267,63.392 466.973,59.36 469.339,58.626 471.468,59.7 475.101,58.178
		477.953,56.98 481.754,53.771 481.798,49.097 480.701,47.116 484.75,44.629 488.099,39.345 490.279,39.913 490.58,42.642
		492.988,43.081 495.92,39.212 497.444,33.945 496.225,30.341 497.23,28.429 501.188,26.974 506.194,26.374 516.312,21.629
		518.71,19.391 523.665,19.255 525.224,19.21 538.2,13.445 545.443,9.545 553.408,0.824 558.644,-2.619 569.91,-11.207
		571.365,-14.564 574.208,-14.836 577.92,-18.886 577.995,-18.389 584.341,-18.899 587.291,-21.071 589.769,-28.094
		589.126,-28.008 588.279,-30.155 590.409,-29.946 595.674,-20.214 598.623,-21.803 593.731,-30.537 599.218,-33.311
		602.424,-39.043 609.925,-38.06 610.016,-37.44 631.96,-42.582 634.476,-41.539 635.56,-42.199 643.269,-46.888 650.271,-54.632
		633.343,-50.959 629.443,-49.797 625.765,-50.684 621.578,-54.004 598.389,-54.486 592.946,-53.986 589.853,-50.577
		588.666,-51.879 538.833,-51.94 538.353,-52.503 532.514,-45.246 529.958,-44.758 528.572,-46.071 525.987,-44.946
		523.091,-48.599 522.222,-49.7 518.341,-49.271 517.036,-51.733 513.885,-50.018 706.825,-54.077 707.739,-53.195 714.483,-54.704
		761.621,-54.606 766.646,-49.585 768.457,-46.921 772.676,-47.706 773.318,-44.014 770.703,-36.389 774.989,-30.015
		776.087,-22.985 774.352,-16.603 776.905,-1.831 774.467,11.194 773.19,18.041 774.325,26.917 778.167,30.203 778.528,35.695
		781.392,39.479 780.741,42.33 783.044,46.419 787.617,54.539 787.93,60.662 796.6,78.552 797.003,90.838 797.691,101.046 	"/>
</g>
<g id="trail-path" display="">
	<path display="inline" fill="none" stroke="#010101" stroke-width="5" stroke-miterlimit="10" d="M629.401,665.289
		c-12.551,0.99-12.553,15.608-20.967,24.866c-3.251,0.812-6.501,1.624-9.752,2.438c0,1.951,0,3.9,0,5.851
		c-7.1,5.672-14.126,9.676-22.303,13.471c-24.045,11.163-50.968,19.764-73.444,33.678c-18.811,11.645-23.344,10.609-45.437,7.297
		c-8.486-1.273-20.111,13.275-29.129,18.797c-10.455,6.401-11.997,20.409-10.474,32.09c1.853,14.212-1.676,21.172-2.546,34.112
		c14.554-15.794,29.532,1.427,44.895-9.083c4.449-3.043,17.184-11.589,20.443-9.688c10.108,5.896,16.574-11.011,24.867-11.459
		c3.35-0.18,14.604,8.289,22.17,8.289c8.202,0,16.438,0.188,24.638,0c14.94-0.339,33.605,3.46,47.91-1.137
		c15.753-5.063,30.883-13.979,46.538-3.307c21.313,14.53,26.324,13.21,50.931,7.247c21.955-5.323,32.319-7.005,37.834-30.442
		c2.288-9.728-3.228-13.143,8.556-13.679c6.627-0.301,16.311-14.824,21.096-19.827c14.647-15.313,17.755-21.033,29.469,0.443
		c2.815,5.16,14.612,2.186,20.479,5.12c7.569,3.784,12.953-18.441,14.14-24.379c3.103-15.52,27.477-22.599,36.812-31.935
		c10.584-10.583,28.309-25.688,42.177-30.31c17.978-5.993,21.28-25.673,37.057-33.562c13.362-6.681,37.091-16.524,40.487-35.205
		c2.196-12.076-9.505-29.334,1.445-39.15c16.149-14.475,33.448,10.102,47.242-11.737c0.232-0.367,61,64.801,91.724,150.693
		c36.354,101.635,43.607,226.666,43.881,226.233"/>
</g>
<g id="camera-path" display="">
	<path display="inline" fill="none" stroke="#EC2227" stroke-width="3" stroke-miterlimit="10" d="M658.9,630.669
		c0,0-280.539,125.21-251.399,200.056c15.45,39.688,127.697-8.992,169.484-17.219c53.122-10.456,156.542-46.28,204.369-71.656
		c69.927-37.102,178.023-209.938,254.278-188.688c95.808,26.697,132.312,375.168,132.312,375.168"/>
</g>
<g id="points" display="">
	<circle id="Reykjavík" display="inline" fill="#405b54" cx="629.957" cy="663.596" r="5.782"/>
	<circle id="Reykjanesta" display="inline" fill="#405b54" cx="415.661" cy="839.364" r="5.781"/>
	<circle id="Krísuvíkurbjarg" display="inline" fill="#405b54" cx="578.029" cy="815.96" r="5.781"/>
	<circle id="Hveragerði" display="inline" fill="#405b54" cx="781.354" cy="741.851" r="5.782"/>
	<circle id="Gullfoss" display="inline" fill="#405b54" cx="1035.633" cy="553.162" r="5.782"/>
	<circle id="Eyjafjallajökull" display="inline" fill="#405b54" cx="1169.476" cy="930.54" r="5.782"/>
</g>
</svg>
