<?xml version="1.0" encoding="utf-8"?>
<!-- Generator: Adobe Illustrator 19.0.0, SVG Export Plug-In . SVG Version: 6.00 Build 0)  -->
<svg version="1.1" id="Layer_1" xmlns="http://www.w3.org/2000/svg" xmlns:xlink="http://www.w3.org/1999/xlink" x="0px" y="0px"
	 width="2048px" height="2048px" viewBox="0 0 2048 2048" style="enable-background:new 0 0 2048 2048;" xml:space="preserve">
<style type="text/css">
	.st0{fill:none;}
	.st1{fill:#1F2833;stroke:#000000;stroke-linecap:round;stroke-linejoin:round;stroke-miterlimit:10;}
	.st2{fill:#45A29E;stroke:#66FCF1;stroke-width:2.4;stroke-linecap:round;stroke-linejoin:round;stroke-miterlimit:10;}
	.st3{display:none;}
	
		.st4{display:inline;fill:#27AAE1;stroke:#27AAE1;stroke-width:2.4;stroke-linecap:round;stroke-linejoin:round;stroke-miterlimit:10;}
	.st5{display:inline;fill:none;stroke:#27AAE1;stroke-width:3;stroke-linecap:round;stroke-linejoin:round;stroke-miterlimit:10;}
	.st6{fill:#1F2833;stroke:#000000;stroke-width:2;stroke-linecap:round;stroke-linejoin:round;stroke-miterlimit:10;}
	.st7{font-family:'BellMT';}
	.st8{font-size:51px;}
</style>
<g>
	<title>background</title>
	<rect id="canvas_background" x="-1" y="-1" class="st0" width="582" height="402"/>
</g>
<rect id="XMLID_22_" x="-16" class="st1" width="2048" height="2048"/>
<path id="XMLID_19_" class="st2" d="M1476.8,1444l2.3-4.9l20.8-26.1l0.6-0.4l4.1-3.3l11.4-1.4l18.1-8.4l8.7-3.1l5.2-3.8l2.7-15.8
	l-0.5-8.2l-4.3-9.6l-5.9-8.4l-8-4.8l-7.2-4.3l-11.6-13.6l-3.7-2.8l3.2-3.6l3.9-8.5l1-22l3.2-12.2l0.9-3.2l1.1-14.2l12.4-5.5l3-4.8
	l1.2-12.3l-1.7-2.5l-8.5-12.4l-1.5-7v-0.4l3.5-15l3.3-7.4l-10.3-2.9l-17.8-1.4l-7.9,1.4l-9.7,6.5l-4.6,5.9l-13-5.4l-1.5-12.1
	l1.5-9.1l-1.2-2.5l-4.5-9l-2.1-3.1l-3.8-5.2l-9.1-7.3l-7.7-2.3l-10.6,1.7l-6-3.6l-6.6-10.5l2.6-13.4l-7.4-9l-4.2,0.2l-12.8-3.9
	l-13.7-25l-12.9-10.6l-6-7.2l8.3-3.5l4.4-7.1l-10.4-0.3l-8.6,1.8l-7.4-1.6l-6-2.9l-3.2-1.4l-0.1-0.1l-8.9-11.1l-3.6-13.2l1.2-24.1
	l30.9,4.5l7.4-40.1l-10.3-18.8l2-17.8l-5.6-10l-4.8-5.2l-8.3-4l-10-1.2l-10.7-3.1l-5.6,8.2l-31.1,2l-8.4,5.7l-15.2,16l-13.9,10.6
	l-5.2,1.3l-8.5-6l3.4-14.7l-0.4-10.8l-10.2-13.1l-30.7-2.5l-3.9-4.4l-12.3-7.9l-26.1-4.9l-11.5-18.8l-9.6,8.1l-7.8,12.7l-25.8-1.2
	l-21.1,37l-11,29.3h-1.5l-9.7,0.5l-9.5-1.8l-20,2.6l-27.2-8.2l-10.2-0.2l-6.6,4.1l-10.3,19.8l-5.2,1.2L951,958.9l-4.7,2.3l-4.3,18.9
	l-12.5,3.9l-9.4-6l-8.8,21l-0.3,10.5l8.6,15.8l-1.4,11l-0.3,2.5l2,17.2l3.9,8.4l-6,10.8l-8.6,15.4l14.5,16.3l4.4,8.4l-2.2,9.4l2,9.4
	l-16.6,35.4l15.3,13.9l5.7,8.4l-1,8.9l-7.3,11.6l-3.1,11.2l-4.3,8.2l1.5,10.7l0.2,1.2l-7.8,3.5l-21,0.6l-11.1,9.1l-10,21.8l0.9,7.4
	l24.6,29.9l-13.5,15.1l-3.8,1l-21-17.8l-10.4-0.6l-11.3,9l-5.9-0.1l-25.3-10l-30.2,63.8l-10.7,18.4l-7.7,3.8l-24.7-3.3l-4.1,16.2
	l6,47.4l30.5,18.1l3.6,11l8,7.8l19,18.2l4.8,8.4l-9.9,17.4l8.7,10.3l12.3-3.6l11.6-8.6l6.2-2.8l17.8,6l23.4-7.2l17.1,6.6l18.4,5.2
	l39.9-24.4l12.9,7.5l22.2,8.3l24.6,10.8l9-6.3l1.2-11.1l-10.1-8.9l-10.8-6.7l-3.4-8.9l7.3-9.2l7.8-0.9l1.8-0.2l15,18l6.5,0.3
	l21.7,10l13.2,17.8l11.4,7.3l13.2,3.1l17.7-11.9l8.2,1l20.9,17.8l0.5,0.4l6.7,10.3l21,15.6l5.9,6.1l0.7,0.8l-7.8,19.6l-3.5,12.1
	l1.6,11.2l5.1,8.6l3.8,15.9l5.7,13.3l8.9,14.8l9.2,6.2l11.9,1.3l17.9,6.2l15,14.2l3.6,13.1l17.9,24.4l22.7-6.4l25.7,0.6l17.5-1
	l15.6-3.8l12.4-5.5l29.9-17.3l4.5-8.8l2.3-14.7l-1.2-10.8l-5.2-11.5l-10.7-11.1l-10.9-1.9l-0.9-6.9l0.3-0.9l3.2-9.7l7.4-9.8l0.9-1.1
	l7.3-7l10-8.7l18.5-1.1l10.2-5l15.2-12.5l3.5-2.8l11.3-1.7l12.6,3.9l8,4.8l8.8,5.2l7.6,2.2l9.7-0.7l13.2-6.7l11.5-8.5l8.4-7.3
	l4.1-8.8l9-4.8l5.3,4.1l-1.1-12.5l-4.3-9.4l-5.5-6.5l-7.9-12.6l-6-9.6l-10.5-10.8l-6.7-4.3l-12-13l-12.2-20.3l-1.9-10.4l0.1-3.4
	L1476.8,1444L1476.8,1444z"/>
<g id="points" class="st3">
	<circle id="DTU" class="st4" cx="980.7" cy="1015.2" r="10"/>
	<circle id="Noida" class="st4" cx="1570.5" cy="1520.1" r="10"/>
	<circle id="Saket" class="st4" cx="1283.2" cy="1491.1" r="10"/>
	<circle id="Gurgoan" class="st4" cx="1049.5" cy="1589.7" r="10"/>
	<circle id="HKV" class="st4" cx="1039.5" cy="1435.3" r="10"/>
	<circle id="South_Ex" class="st4" cx="1110.9" cy="1290.2" r="10"/>
	<circle id="JLN" class="st4" cx="1173.1" cy="1220.1" r="10"/>
	<circle id="Parliament_Street" class="st4" cx="1059.5" cy="1139.7" r="10"/>
	<circle id="CP" class="st4" cx="1100.9" cy="1072" r="10"/>
</g>
<g id="camera-path" class="st3">
	<path class="st5" d="M968.3,1001.2c-8.6,31.9,3.6,68.5,29.7,88.8c5,3.9,10.5,7.3,13.8,12.7c4.5,7.3,3.9,16.5,4.7,25
		c2,22.2,14.8,43.2,33.6,55.2c5.4,3.5,11.4,6.3,16.1,10.6c16.9,15.4,12.8,43.7,0.5,62.9c-12.3,19.2-30.9,33.9-42.5,53.5
		c-9.3,15.7-13.6,33.7-17.4,51.6c-11.2,52.7-18.4,106.2-21.5,160c-1.5,25-1.7,51.6,11.1,73.1c20.4,34.3,66.3,43.5,106.2,40.9
		c58.6-3.8,115.9-25.6,162-61.8c9.8-7.7,19.4-16.2,30.8-21.2c12.5-5.5,26.5-6.6,39.8-9.5c21.3-4.7,41.3-14.2,62.6-18.5
		c56.9-11.6,114.6,14.5,172.7,15.3"/>
</g>
<g id="trail-path" class="st3">
	<path class="st5" d="M980.7,1015.2c4,1.9,8,3.8,12,5.7c9.6,4.5,19.2,9.1,28.7,13.6c11.6,5.5,23.2,11,34.8,16.4
		c10,4.7,19.9,9.4,29.9,14.1c3.3,1.6,6.6,3.1,10,4.7c1,0.5,2,1,3,1.4c0.4,0.2,1.3,0.4,1.6,0.8c0,0,0.1,0.1,0.2,0.1
		c-2.4,4-4.9,8-7.3,12c-5.2,8.6-10.5,17.1-15.7,25.7c-4.8,7.8-9.5,15.6-14.3,23.4c-1.2,2-2.4,4-3.6,6c-0.5,0.7-0.5,0.6,0.2,1.1
		c3.6,2.5,7.2,5.1,10.8,7.6c6.8,4.8,13.7,9.7,20.5,14.5c8.4,6,16.9,12,25.3,17.9c8.4,6,16.8,11.9,25.3,17.9
		c6.8,4.8,13.5,9.6,20.3,14.3c3.4,2.4,6.9,4.9,10.3,7.3c0.2,0.1,0.3,0.2,0.5,0.3c-2.4,2.8-4.9,5.5-7.3,8.3
		c-5.7,6.4-11.4,12.9-17.1,19.3c-6.5,7.3-13,14.7-19.5,22c-4.9,5.5-9.8,11-14.7,16.6c-1.3,1.5-3,2.9-3.9,4.7
		c-1.6,3.2-3.2,6.5-4.8,9.7c-3.1,6.2-6.1,12.5-9.2,18.7c-4,8.1-8,16.2-12,24.3c-4.4,8.9-8.8,17.8-13.1,26.7
		c-4.2,8.6-8.5,17.2-12.7,25.8c-3.5,7.2-7.1,14.4-10.6,21.6c-2.3,4.7-4.6,9.3-6.9,14c-0.5,1-1,2.1-1.5,3.1c-0.2,0.4-0.2,0.5-0.2,0.9
		c0.2,3.4,0.4,6.8,0.7,10.3c0.4,6.9,0.9,13.8,1.3,20.7c0.6,9.1,1.2,18.2,1.8,27.3c0.6,9.9,1.3,19.9,1.9,29.8
		c0.6,9.4,1.2,18.8,1.8,28.2c0.5,7.6,1,15.1,1.5,22.7c0.3,4.4,0.6,8.8,0.9,13.2c0,0.6,0.1,1.2,0.1,1.7c2.4-1,4.8-2,7.1-3
		c6.4-2.7,12.8-5.4,19.3-8.1c9.3-3.9,18.7-7.9,28-11.8c11.3-4.8,22.6-9.5,33.9-14.3c12.1-5.1,24.3-10.2,36.4-15.4
		c11.8-5,23.7-10,35.5-15c10.6-4.5,21.2-9,31.8-13.4c8.3-3.5,16.5-7,24.8-10.4c4.8-2,9.6-4.1,14.4-6.1c0.7-0.3,1.6-0.9,2.4-1
		c0.4-0.1,0.9,0.1,1.3,0.1c4,0.4,8.1,0.8,12.1,1.2c7.6,0.8,15.2,1.5,22.9,2.3c10.3,1,20.6,2.1,31,3.1c12.1,1.2,24.1,2.4,36.2,3.7
		c13,1.3,26.1,2.6,39.1,3.9c13.1,1.3,26.1,2.6,39.2,4c12.1,1.2,24.3,2.5,36.4,3.7c10.5,1.1,20.9,2.1,31.4,3.2
		c7.8,0.8,15.6,1.6,23.4,2.4c4.3,0.4,8.5,0.9,12.8,1.3c0.5,0.1,1.1,0.1,1.6,0.2"/>
</g>
<text transform="matrix(1 0 0 1 1233.625 1324.0605)" class="st6 st7 st8">Delhi</text>
</svg>
